<?xml version="1.0" standalone="no"?><!DOCTYPE svg PUBLIC "-//W3C//DTD SVG 1.1//EN" "http://www.w3.org/Graphics/SVG/1.1/DTD/svg11.dtd"><svg t="1660754865859" class="icon" viewBox="0 0 1024 1024" version="1.1" xmlns="http://www.w3.org/2000/svg" p-id="16693" xmlns:xlink="http://www.w3.org/1999/xlink" width="128" height="128"><defs><style type="text/css">@font-face { font-family: "feedback-iconfont"; src: url("//at.alicdn.com/t/font_1031158_u69w8yhxdu.woff2?t=1630033759944") format("woff2"), url("//at.alicdn.com/t/font_1031158_u69w8yhxdu.woff?t=1630033759944") format("woff"), url("//at.alicdn.com/t/font_1031158_u69w8yhxdu.ttf?t=1630033759944") format("truetype"); }
</style></defs><path d="M896 989.866667h-768c-51.2 0-93.866667-42.666667-93.866667-93.866667v-768C34.133333 76.8 76.8 34.133333 128 34.133333h768c51.2 0 93.866667 42.666667 93.866667 93.866667v768c0 51.2-42.666667 93.866667-93.866667 93.866667zM128 85.333333C104.106667 85.333333 85.333333 104.106667 85.333333 128v768C85.333333 919.893333 104.106667 938.666667 128 938.666667h768c23.893333 0 42.666667-18.773333 42.666667-42.666667v-768C938.666667 104.106667 919.893333 85.333333 896 85.333333h-768z" fill="#bfbfbf" p-id="16694"></path><path d="M735.573333 537.6H288.426667c-13.653333 0-25.6-11.946667-25.6-25.6s11.946667-25.6 25.6-25.6H733.866667c13.653333 0 25.6 11.946667 25.6 25.6s-10.24 25.6-23.893334 25.6z" fill="#bfbfbf" p-id="16695"></path><path d="M512 761.173333c-13.653333 0-25.6-11.946667-25.6-25.6V288.426667c0-13.653333 11.946667-25.6 25.6-25.6s25.6 11.946667 25.6 25.6V733.866667c0 15.36-11.946667 27.306667-25.6 27.306666z" fill="#bfbfbf" p-id="16696"></path></svg>