<?xml version="1.0" standalone="no"?><!DOCTYPE svg PUBLIC "-//W3C//DTD SVG 1.1//EN" "http://www.w3.org/Graphics/SVG/1.1/DTD/svg11.dtd"><svg t="1660753834633" class="icon" viewBox="0 0 1024 1024" version="1.1" xmlns="http://www.w3.org/2000/svg" p-id="11116" xmlns:xlink="http://www.w3.org/1999/xlink" width="128" height="128"><defs><style type="text/css">@font-face { font-family: "feedback-iconfont"; src: url("//at.alicdn.com/t/font_1031158_u69w8yhxdu.woff2?t=1630033759944") format("woff2"), url("//at.alicdn.com/t/font_1031158_u69w8yhxdu.woff?t=1630033759944") format("woff"), url("//at.alicdn.com/t/font_1031158_u69w8yhxdu.ttf?t=1630033759944") format("truetype"); }
</style></defs><path d="M814.1 844.4H247.6c-68.2 0-120.6-52.5-120.6-120.6V204.5c0-68.2 52.5-120.6 120.6-120.6h566.5c68.2 0 120.6 52.5 120.6 120.6v519.3c5.3 62.9-52.4 120.6-120.6 120.6zM252.9 131c-36.7 0-68.2 31.5-68.2 68.2v519.3c0 36.7 31.5 68.2 68.2 68.2h566.5c36.7 0 68.2-31.5 68.2-68.2V199.2c0-36.7-31.5-68.2-68.2-68.2H252.9z" fill="#bfbfbf" p-id="11117"></path><path d="M651.5 592.6l-157.4 89.2c-31.5 21-73.4-5.2-73.4-42V461.5c0-36.7 42-62.9 73.4-42l157.4 89.2c36.7 21 36.7 68.2 0 83.9zM163.7 277.9H940v52.5H163.7z" fill="#bfbfbf" p-id="11118"></path><path d="M201.56 296.267L287.117 104.7l47.937 21.41-85.556 191.568zM369.624 295.769L455.18 104.2l47.938 21.41-85.557 191.568zM537.155 300.402l85.556-191.568 47.938 21.41-85.557 191.568zM709.936 302.108l85.556-191.568 47.938 21.41-85.556 191.568z" fill="#bfbfbf" p-id="11119"></path></svg>